<mxfile host="app.diagrams.net" modified="2024-01-09T15:19:13.853Z" agent="Mozilla/5.0 (Windows NT 10.0; Win64; x64) AppleWebKit/537.36 (KHTML, like Gecko) Chrome/120.0.0.0 Safari/537.36" version="22.1.17" etag="qB0GDuEzN2uCPb52OEIY" type="github">
  <diagram name="Page-1" id="bEKFcqkKPlI28_oEo1ij">
    <mxGraphModel>
      <root>
        <mxCell id="0" />
        <mxCell id="1" parent="0" />
      </root>
    </mxGraphModel>
  </diagram>
</mxfile>
